<svg width="20" height="20" viewBox="0 0 20 20" fill="none" xmlns="http://www.w3.org/2000/svg">
<path d="M13.7498 2.5C16.2815 2.5 18.3332 4.58333 18.3332 7.5C18.3332 13.3333 12.0832 16.6667 9.99984 17.9167C7.9165 16.6667 1.6665 13.3333 1.6665 7.5C1.6665 4.58333 3.74984 2.5 6.24984 2.5C7.79984 2.5 9.1665 3.33333 9.99984 4.16667C10.8332 3.33333 12.1998 2.5 13.7498 2.5ZM10.7782 15.5033C11.5123 15.04 12.1748 14.5792 12.7948 14.0858C15.279 12.1108 16.6665 9.9525 16.6665 7.5C16.6665 5.53333 15.3857 4.16667 13.7498 4.16667C12.8532 4.16667 11.8832 4.64167 11.1782 5.345L9.99984 6.52333L8.8215 5.345C8.1165 4.64167 7.1465 4.16667 6.24984 4.16667C4.63317 4.16667 3.33317 5.54667 3.33317 7.5C3.33317 9.95333 4.7215 12.1108 7.204 14.0858C7.82484 14.5792 8.48734 15.04 9.2215 15.5025C9.47067 15.66 9.71734 15.8108 9.99984 15.9792C10.2823 15.8108 10.529 15.66 10.7782 15.5033Z" fill="#727272"/>
</svg>
