<svg width="22" height="22" viewBox="0 0 22 22" fill="none" xmlns="http://www.w3.org/2000/svg">
<path d="M1.83325 11C1.83325 10.2071 1.93409 9.43891 2.12292 8.70466C2.62935 8.73128 3.13327 8.61735 3.57899 8.37546C4.02471 8.13357 4.39486 7.77314 4.64852 7.33401C4.90219 6.89489 5.02949 6.39417 5.01635 5.88721C5.00322 5.38026 4.85015 4.88681 4.57408 4.46141C5.68228 3.3711 7.04981 2.58087 8.54783 2.16516C8.77791 2.61751 9.12867 2.99737 9.56129 3.2627C9.9939 3.52802 10.4915 3.66845 10.999 3.66845C11.5065 3.66845 12.0041 3.52802 12.4367 3.2627C12.8693 2.99737 13.2201 2.61751 13.4502 2.16516C14.9482 2.58087 16.3157 3.3711 17.4239 4.46141C17.1475 4.88689 16.9942 5.38052 16.981 5.88771C16.9678 6.3949 17.0951 6.89586 17.3489 7.33517C17.6027 7.77448 17.9731 8.13501 18.4191 8.37688C18.8651 8.61874 19.3694 8.7325 19.876 8.70558C20.0648 9.43891 20.1657 10.2071 20.1657 11C20.1657 11.7929 20.0648 12.5611 19.876 13.2953C19.3695 13.2685 18.8654 13.3823 18.4196 13.6241C17.9737 13.866 17.6034 14.2264 17.3497 14.6655C17.0959 15.1047 16.9685 15.6055 16.9816 16.1125C16.9947 16.6196 17.1478 17.1131 17.4239 17.5386C16.3157 18.6289 14.9482 19.4191 13.4502 19.8348C13.2201 19.3825 12.8693 19.0026 12.4367 18.7373C12.0041 18.472 11.5065 18.3315 10.999 18.3315C10.4915 18.3315 9.9939 18.472 9.56129 18.7373C9.12867 19.0026 8.77791 19.3825 8.54783 19.8348C7.04981 19.4191 5.68228 18.6289 4.57408 17.5386C4.85047 17.1131 5.00375 16.6195 5.01699 16.1123C5.03023 15.6051 4.90289 15.1041 4.64908 14.6648C4.39527 14.2255 4.02487 13.865 3.57887 13.6231C3.13286 13.3813 2.62865 13.2675 2.122 13.2944C1.93409 12.562 1.83325 11.7938 1.83325 11ZM6.23692 13.75C6.81442 14.7501 6.97942 15.9005 6.75392 16.9803C7.12792 17.2462 7.52575 17.4762 7.94283 17.6678C8.78311 16.9151 9.87179 16.4992 10.9999 16.5C12.1549 16.5 13.2348 16.9317 14.057 17.6678C14.4741 17.4762 14.8719 17.2462 15.2459 16.9803C15.0144 15.8766 15.1985 14.7263 15.7629 13.75C16.3263 12.7732 17.2305 12.0387 18.3021 11.6875C18.3445 11.2301 18.3445 10.7698 18.3021 10.3125C17.2302 9.96147 16.3256 9.22699 15.762 8.24999C15.1976 7.27368 15.0135 6.12336 15.245 5.01966C14.8711 4.75376 14.4731 4.52358 14.0561 4.33216C13.216 5.08468 12.1277 5.50055 10.9999 5.49999C9.87179 5.50078 8.78311 5.08489 7.94283 4.33216C7.52587 4.52358 7.12782 4.75376 6.75392 5.01966C6.98544 6.12336 6.80133 7.27368 6.23692 8.24999C5.67351 9.22682 4.76932 9.96127 3.69775 10.3125C3.65536 10.7698 3.65536 11.2301 3.69775 11.6875C4.76966 12.0385 5.6742 12.773 6.23783 13.75H6.23692ZM10.9999 13.75C10.2706 13.75 9.5711 13.4603 9.05537 12.9445C8.53965 12.4288 8.24992 11.7293 8.24992 11C8.24992 10.2706 8.53965 9.57118 9.05537 9.05545C9.5711 8.53973 10.2706 8.24999 10.9999 8.24999C11.7293 8.24999 12.4287 8.53973 12.9445 9.05545C13.4602 9.57118 13.7499 10.2706 13.7499 11C13.7499 11.7293 13.4602 12.4288 12.9445 12.9445C12.4287 13.4603 11.7293 13.75 10.9999 13.75ZM10.9999 11.9167C11.243 11.9167 11.4762 11.8201 11.6481 11.6482C11.82 11.4763 11.9166 11.2431 11.9166 11C11.9166 10.7569 11.82 10.5237 11.6481 10.3518C11.4762 10.1799 11.243 10.0833 10.9999 10.0833C10.7568 10.0833 10.5236 10.1799 10.3517 10.3518C10.1798 10.5237 10.0833 10.7569 10.0833 11C10.0833 11.2431 10.1798 11.4763 10.3517 11.6482C10.5236 11.8201 10.7568 11.9167 10.9999 11.9167Z" fill="#727272"/>
</svg>
